# xmcd
#
# Track frame offsets:
#	150
#	11735
#	23164
#	35106
#	46147
#	56261
#	69876
#	82131
#	94087
#	109038
#	123866
#
# Disc length: 1781 seconds
#
# Revision: 1
# Processed by: cddbd v1.5.2PL0 Copyright (c) Steve Scherf et al.
# Submitted via: audiograbber 1.83.01
#
DISCID=8506f30b
DTITLE=Jean Shepard - I'll Do Anything It Takes
DYEAR=1974
DGENRE=Country
TTITLE0=At The Time
TTITLE1=I Love
TTITLE2=Let Me Be There
TTITLE3=What I Had With You
TTITLE4=Silver Threads And Golden Needles
TTITLE5=I Just Had You On My Mind
TTITLE6=I'll Do Anything It Takes (To Stay With You)
TTITLE7=Would You Lay With Me (In A Field Of Stone)
TTITLE8=I'm Not That Good At Goodbye
TTITLE9=He Thinks I Still Care
TTITLE10=Love Came Pouring Down
EXTD=
EXTT0=
EXTT1=
EXTT2=
EXTT3=
EXTT4=
EXTT5=
EXTT6=
EXTT7=
EXTT8=
EXTT9=
EXTT10=
PLAYORDER=
